<svg version="1.2" baseProfile="tiny-ps" xmlns="http://www.w3.org/2000/svg" viewBox="0 0 1362 417" width="1362" height="417">
	<title>Layer 1</title>
	<defs>
		<clipPath clipPathUnits="userSpaceOnUse" id="cp1">
			<path d="m348.75 266.22h676.47c184.24 0 335.02 5.8 335.02 8.24c0 2.44-182.58 5.66-334.98 5.66h-690.24c-184.24 0-335.02-5.82-335.02-8.24c0-2.45 182.58-5.66 334.94-5.62h13.81v-0.04z" />
		</clipPath>
		<linearGradient id="grd1" gradientUnits="userSpaceOnUse"  x1="0" y1="287.6" x2="1360.2" y2="287.6">
			<stop offset="0" stop-color="#95a5a7"  />
			<stop offset=".5" stop-color="#485356"  />
			<stop offset=".7" stop-color="#5e6c6f"  />
			<stop offset="1" stop-color="#95a5a7"  />
		</linearGradient>
		<clipPath clipPathUnits="userSpaceOnUse" id="cp2">
			<path d="m1361.25 368.99v48.01h-73.54c-29.47 0-43.2-15.16-43.2-46.64c0-31.5 13.73-46.25 43.17-46.5h72.83v13.01h-71.78c-22.17 0-30.41 8.65-30.41 33.3c0 24.63 8.24 33.75 30.41 33.75h59.24v-34.93h13.28zm-285-45.13h13.36v93.22h-11.25c-21.23-0.19-28.06-9.12-53.42-42.27l-2.81-3.75c-23.01-29.76-25.9-33.75-38.01-33.75v79.69h-13.36v-93.14h11.25c21.98 0.17 28.77 9.14 53.93 42.89l1.05 1.39c23.36 31.35 26.43 35.51 39.26 35.51v-79.78zm-278.59 0h13.48v93.14h-13.48v-93.14zm-268.91 46.64c0-31.99 13.17-46.39 43.01-46.64h73.24v13.08h-72.39c-22.15 0-30.41 9.1-30.41 33.44c0 24.35 8.26 33.41 30.41 33.41h72.39v13.21h-73.21c-29.47 0-43.04-15-43.16-46.39l0.12-0.12zm-142.66 44.3l1.13 2.32h-14.63l-0.41-0.89l-12.6-25.84h-72.42l-12.6 25.84l-0.45 0.89h-14.43l1.13-2.32l35.43-72.54c6.6-13.71 14.85-19.61 27.23-19.61c12.39 0 20.21 5.7 27.11 19.59l35.51 72.56zm-32.65-36.84l-15.74-32.21c-3.71-7.7-7.78-10.84-14.26-10.84c-6.48 0-10.61 3.15-14.36 10.84l-15.72 32.36l60.08-0.16zm-256.23-0.9c8.77 3.54 14.41 12.18 14.11 21.64v18.3h-13.73v-18.22c0-9.71-6.94-15.53-18.58-15.53h-64.53v33.75h-13.46v-93.14h79.46c20.78 0.21 33.2 10.9 33.2 28.57c0.39 10.9-6.25 20.84-16.46 24.63zm2.85-23.55c0-4.09-1.39-17.39-19.47-17.39h-66.11v34.75h66.11c18.09 0 19.47-13.26 19.47-17.36z" />
		</clipPath>
		<linearGradient id="grd2" gradientUnits="userSpaceOnUse"  x1="-6.5" y1="321.8" x2="-6.5" y2="419.2">
			<stop offset="0" stop-color="#718183"  />
			<stop offset=".5" stop-color="#7e8e91"  />
			<stop offset=".7" stop-color="#677579"  />
			<stop offset="1" stop-color="#3f494c"  />
		</linearGradient>
	</defs>
	<style>
		tspan { white-space:pre }
		.s0 { fill: url(#grd1) } 
		.s1 { fill: url(#grd2) } 
		.s2 { fill: none } 
		.s3 { fill: #ed1847 } 
		.s4 { fill: #fcd700 } 
	</style>
	<g id="Layer 1">
		<g id="&lt;Clip Group&gt;" clip-path="url(#cp1)">
			<path id="&lt;Path&gt;" class="s0" d="m0 266.22h1360.23v13.9h-1360.23v-13.9z" />
		</g>
		<g id="&lt;Clip Group&gt;" clip-path="url(#cp2)">
			<path id="&lt;Path&gt;" class="s1" d="m1.01 322.64h1360.23v94.47h-1360.23v-94.47z" />
			<path id="&lt;Compound Path&gt;" fill-rule="evenodd" class="s2" d="m1361.25 368.99v48.01h-73.54c-29.47 0-43.2-15.16-43.2-46.64c0-31.5 13.73-46.25 43.17-46.5h72.83v13.01h-71.78c-22.17 0-30.41 8.65-30.41 33.3c0 24.63 8.24 33.75 30.41 33.75h59.24v-34.93h13.28zm-285-45.13h13.36v93.22h-11.25c-21.23-0.19-28.06-9.12-53.42-42.27l-2.81-3.75c-23.01-29.76-25.9-33.75-38.01-33.75v79.69h-13.36v-93.14h11.25c21.98 0.17 28.77 9.14 53.93 42.89l1.05 1.39c23.36 31.35 26.43 35.51 39.26 35.51v-79.78zm-278.59 0h13.48v93.14h-13.48v-93.14zm-268.91 46.64c0-31.99 13.17-46.39 43.01-46.64h73.24v13.08h-72.39c-22.15 0-30.41 9.1-30.41 33.44c0 24.35 8.26 33.41 30.41 33.41h72.39v13.21h-73.21c-29.47 0-43.04-15-43.16-46.39l0.12-0.12zm-142.66 44.3l1.13 2.32h-14.63l-0.41-0.89l-12.6-25.84h-72.42l-12.6 25.84l-0.45 0.89h-14.43l1.13-2.32l35.43-72.54c6.6-13.71 14.85-19.61 27.23-19.61c12.39 0 20.21 5.7 27.11 19.59l35.51 72.56zm-32.65-36.84l-15.74-32.21c-3.71-7.7-7.78-10.84-14.26-10.84c-6.48 0-10.61 3.15-14.36 10.84l-15.72 32.36l60.08-0.16zm-256.23-0.9c8.77 3.54 14.41 12.18 14.11 21.64v18.3h-13.73v-18.22c0-9.71-6.94-15.53-18.58-15.53h-64.53v33.75h-13.46v-93.14h79.46c20.78 0.21 33.2 10.9 33.2 28.57c0.39 10.9-6.25 20.84-16.46 24.63zm2.85-23.55c0-4.09-1.39-17.39-19.47-17.39h-66.11v34.75h66.11c18.09 0 19.47-13.26 19.47-17.36z" />
		</g>
		<path id="&lt;Compound Path&gt;" fill-rule="evenodd" class="s3" d="m313.24 196.92v-11.25c-8.45 8.73-20.05 13.73-32.23 13.83c-26.31 0-47.69-23.6-47.69-52.38c0-28.81 21.44-52.17 47.69-52.17c12.05 0.06 23.6 4.9 32.07 13.46v-79.23h31.91v167.4l-31.76 0.35zm0.26-50.53c0-14.16-10.52-25.64-23.44-25.64c-12.89 0-23.4 11.62-23.4 25.76c0 14.14 10.51 25.6 23.4 25.6c12.95 0 23.44-11.54 23.44-25.72zm-95.26 0.6c0.02 2.15-0.07 4.28-0.29 6.41h-70.28v1.09c0.43 11.54 10.18 20.53 21.72 20.02c8.44 0.19 16.23-4.53 19.98-12.11l25.92 11.98c-8.97 15.74-26.29 25.8-48.54 25.8c-28.93-0.79-51.97-24.46-51.97-53.4c0-28.93 23.04-52.59 51.97-53.38c29.14 0 51.97 18.94 51.48 53.59zm-31.71-11.77c0.48-11.09-8.38-20.35-19.47-20.35c-11.11 0-19.98 9.26-19.49 20.35h38.97zm-115.72-5.35l46.87 66.7h-39.74l-33.75-52.26v-38.22h7.87c11.95 0.37 21.98-8.95 22.5-20.87c-0.19-11.92-10.13-21.35-22.05-20.94h-17.56v132.3h-33.92v-159.7h58.34c12.64-0.12 24.8 4.78 33.81 13.63c9.03 8.85 14.16 20.92 14.28 33.54c-0.14 21.91-15.29 40.88-36.64 45.84zm436.91 20.92c0 24.98-21.79 45.37-48.75 45.78h-70.43v-159.86h54.53c18.18 0 31.76 4.69 39.26 13.05c7.37 7.73 11.49 18 11.51 28.69c-0.14 11.86-5.24 23.13-14.06 31.05c21.5 10.12 27.91 23.11 27.95 41.29zm-54.65 18.06c27.36 0 27.36-41.02 0-41.02h-20.31v-28.73h11.05c9.35 0.02 16.95-7.56 16.95-16.91c0.1-9.55-7.4-17.48-16.95-17.93h-21.25v104.45h30.51v0.13zm182.81-139.68h31.88v167.4h-31.88v-167.4zm85.99 0v167.4h-31.88v-167.4h31.88zm-103.49 68.37v63.75c0 21.53-22.33 38.98-49.81 38.98c-27.48 0-49.81-17.46-49.81-38.98v-63.75h31.7v57.52c1.47 22.79 34.98 22.79 36.45 0v-57.52h31.46z" />
		<path id="&lt;Path&gt;" class="s4" d="m1182.87 109.73c0 60.18-48.79 108.97-108.99 108.97c-60.17 0-108.97-48.79-108.97-108.97c0-60.19 48.79-108.98 108.97-108.98c60.19 0 108.99 48.79 108.99 108.98z" />
		<path id="&lt;Compound Path&gt;" fill-rule="evenodd" class="s4" d="m1073.67 166.69c-0.46 2.71-2.53 4.86-5.21 5.43l-1.58 0.27c0.06 0.55 0.06 1.1 0 1.64c-0.23 2.83-2.32 5.18-5.1 5.74h-2.85c-8.4 0.22-16.48-3.18-22.21-9.33c-3.26 2.92-7.36 4.74-11.74 5.21h-1.19c-3.67-0.82-7.5-0.63-11.05 0.57h-0.35l-1.51 0.53h-0.21c-3.79 1.58-7.83 2.56-11.93 2.87h-0.21c-4.49 0.19-8.62-2.46-10.28-6.62v-0.65c-1.05 1.78-2.19 3.54-3.37 5.3l-0.24 0.37l-0.29 0.3c-2.66 2.46-6.17 3.8-9.79 3.75h-2.69c-6.58 3.2-13.42 5.82-20.45 7.83c-5.02 1.57-10.46 0.55-14.59-2.74c-2.14-1.85-3.91-4.14-5.18-6.7c-0.08-0.2-0.18-0.39-0.29-0.57h-1.72c-2.6 0.18-5.06-1.09-6.42-3.3l-0.71-1.21c-1.62-2.69-3.14-5.23-4.73-8.05c-1.19-2.07-1.33-4.57-0.37-6.76c0.9-2.01 2.74-3.42 4.9-3.75c2.93-0.63 5.88-1.07 8.86-1.35c2.39-0.37 4.83-0.15 7.11 0.61c1.33-1.37 3.14-2.12 5.04-2.11h0.25c-0.65-0.57-1.62-1.92-2.17-2.48c-2.35 1.15-4.9 1.74-7.5 1.74h-4.55c-3.11-0.15-4.12-0.31-6.86-0.61c-2.73-0.29-6.36-0.6-8.88-0.6h-1.72c-1.57 0.1-3.13 0.31-4.65 0.6c-2.68 0.47-5.37 0.74-8.07 0.82h-1.21c-0.37 0.97-1.8 4.44-2.73 6.31c-1.98 4.47-5.15 8.3-9.22 11.01c-0.69 0.41-1.54 0.86-2.52 1.34l-0.29 0.19c-1.8 0.94-4.03 2.11-6.23 3.34c-4.51 2.36-9.75 2.95-14.67 1.64c-2.54-0.55-5.11-0.88-7.71-0.98c-1.21-0.04-2.42 0.16-3.58 0.57c-0.98 0.72-1.89 1.5-2.78 2.36c-0.85 0.82-1.79 1.7-2.77 2.48c-3.73 3.16-8.48 4.92-13.38 4.94c-1.19-0.1-2.39-0.31-3.53-0.67h-0.59c-0.39 0.52-0.76 1.19-1.13 1.84c-1.45 2.99-3.79 5.45-6.72 7.05c-2.05 1.08-4.33 1.62-6.66 1.6c-2.12-0.04-4.24-0.33-6.31-0.85c-1.01-0.24-2.03-0.43-3.07-0.57h-1.66c-0.37 0.22-0.78 0.37-1.19 0.49h-1.66c-3.69-0.47-7.23-1.76-10.39-3.75c-2.44-2.63-2.44-6.72 0-9.37l0.35-0.37c0.17-0.74 0.49-3.18 0.49-4.5c0.7-3.89 3.32-7.16 6.97-8.71c0.45-0.18 0.9-0.3 1.39-0.37c0.41-1.78 1.37-3.4 2.74-4.61c1.78-1.44 3.65-2.81 5.58-4.04l0.29-0.19l1.22-0.78c2.61-1.87 6.11-1.87 8.73 0c1.37 1.01 2.5 2.28 3.38 3.75c0.69-0.52 1.31-1.17 1.8-1.87c0.57-1.21 1.13-2.63 1.66-4.03c0.82-2.73 2.18-5.29 4-7.5c1.27-1.21 2.91-1.99 4.65-2.21h1.84c1.21-0.08 2.85-0.15 4.31-0.33c2.03-0.65 3.97-1.52 5.78-2.64v-0.21c-1.27-2.93-2.27-5.94-3-9.04c-0.26-1.5-0.37-3.96-0.57-7.71c-2.46 0.51-4.98 0.78-7.5 0.82c-1.51 0-3.03-0.12-4.53-0.33c-9.98-1.25-18.56-7.7-22.5-16.95c-3.47-8.87-2.07-18.91 3.75-26.45c3.22-3.91 6.82-7.52 10.73-10.77c-1.62-0.11-3.23-0.46-4.73-1.09l-0.74-0.3c-7.17-3.4-12.28-10.02-13.77-17.81v-0.3c-0.35-3.73 0.57-7.44 2.59-10.59l2.66-4.08l4.32 2.28c1.53 0.88 3.02 1.82 4.46 2.85c1.69 1.35 3.59 2.4 5.62 3.15c0.9 0.23 1.87 0.41 2.89 0.6l1.75 0.29h0.32l0.98 0.19h0.45c5.8 0.98 11.23 3.58 15.63 7.5c4.94 5.8 5.35 14.2 1.01 20.47c-3.11 3.83-6.64 7.3-10.52 10.32c-2.23 2.07-4.56 3.86-6.51 5.82c-2.91 2.61-4.14 6.66-3.19 10.46c1.21 3.01 4 5.08 7.25 5.36h0.26c5.92-0.51 11.56-2.62 16.35-6.12l1.46-0.9c0.61-0.41 2.07-1.5 4.35-3.26c5.15-4.67 11.25-8.22 17.85-10.43c2.75-0.72 5.59-1.15 8.43-1.31h0.21c2.08-0.14 4.13-0.49 6.12-1.06c4.43-1.97 8.44-4.78 11.81-8.28l0.24-0.2c5.98-5.09 13.65-7.77 21.52-7.5h0.98c0.49-0.33 1.64-1.42 2.89-2.58l3.15-2.96c4.9-4 10.65-6.83 16.8-8.29c2.53-0.72 5.03-1.6 7.5-2.59l0.48-0.18c2.81-1.13 5.51-2.58 7.99-4.32c1.96-1.17 3.71-2.36 5.71-3.41l0.37-0.18c6.45-2.56 13.58-2.81 20.18-0.72c3.75 1.29 7.28 3.16 10.43 5.59l0.33 0.27l23.14 19.24l1.83 1.84c6.96 7.91 13.4 16.27 19.3 25c2.03 3.61 3.38 7.54 3.94 11.64c1.19 11.39 3.94 22.54 8.19 33.19l0.66 0.63c1.41 1.09 2.68 2.34 3.75 3.75c1.1 1.5 2.07 3.16 3.01 4.73c1.55 3.26 3.85 6.07 6.7 8.26l3.26 1.6c2.46 1.29 3.79 4 3.28 6.72zm-79.55-21.6h-1.23c-2.13 0.92-4.38 1.56-6.68 1.91c0.56 1.17 1.27 2.44 2.28 4.2c1.37-1.92 2.97-3.66 4.76-5.18l0.79-0.7l0.07-0.23zm366.27 45.94c-0.74 1.68-2.19 2.95-3.95 3.5l-6.21 2.01c-0.54 0.18-1.13 0.27-1.7 0.27c-1.27-0.02-2.5-0.43-3.52-1.17c-0.53 0.14-1.05 0.23-1.58 0.27h-6.68c-3.59 0.19-7.13-1.04-9.82-3.41c-1.39-1.35-2.66-2.84-3.75-4.44l-0.6-0.86c-1.88 1.17-4.04 1.78-6.25 1.74c-1.64-0.02-3.25-0.36-4.77-0.94c-1.95-0.8-3.75-1.95-5.29-3.38c-0.55-0.51-1.15-0.98-1.8-1.39l-0.53-0.35c-5.65-4.24-12.81-5.9-19.77-4.57c-1.78 0.37-3.61 0.45-5.43 0.23c-3.88-0.57-7.56-2.13-10.64-4.55l-1.17-0.74c-5.55-3.55-9.26-9.34-10.16-15.86l-0.27-1.21c-0.29-1.39-0.49-2.54-0.66-3.48c-1.78 0.58-3.61 0.89-5.47 0.97h-2.11c-1.99 0-3.97-0.04-5.74-0.35c-1.76-0.3-3.38-0.3-4.94-0.3h-1.39c-3.75-0.22-7.52-0.11-11.25 0.3c-4.37 0.91-8.8 1.44-13.28 1.54h-4.08l-2.11-0.21h-0.25c0.82 0.41 1.42 1.97 1.99 2.69v0.2c0.84-0.27 1.7-0.43 2.58-0.49h10.76c3.81 0.06 6.87 3.15 6.9 6.97c0 1.66-0.51 3.28-1.45 4.65c-0.31 0.47-0.61 0.96-0.88 1.47c-0.03 0.04-3.92 7.38-7.91 8.69c-0.56 0.19-1.15 0.35-1.75 0.45c-0.76 3.26-2.62 6.15-5.25 8.22c-2.23 1.99-5.11 3.09-8.08 3.07c-2.36-0.04-4.67-0.49-6.88-1.31h-0.29c-2.79-1.04-5.62-1.89-8.52-2.59c-2.37-0.59-4.77-1.23-7.13-2.01c-1.99-0.68-3.75-1.92-5.09-3.53l-0.29-0.29h-0.27c-0.83 0.14-1.65 0.22-2.47 0.22c-2.52 0.06-4.9-1.02-6.54-2.91c-1.62-2.25-2.77-4.81-3.32-7.5l-0.39-1.25c-0.1 0.48-0.28 0.95-0.49 1.38v0.41l-0.25 0.39c-1.99 4.06-5.86 6.87-10.35 7.5h-0.94l-1.09-0.31c-2.13-0.75-4.28-1.52-6.29-2.33c-2.69-1.02-5.41-2.01-8.03-2.81c-3.01-0.06-6 0.18-8.97 0.68h-1.87c-2.83-0.72-5.41-2.17-7.5-4.2c-5.46 5.32-11.85 10.49-20.82 10.49h-0.21c-2.15 0.02-4.2-0.88-5.63-2.46c-0.92-1.06-1.49-2.37-1.58-3.75c-1.7 0-3.38-0.28-4.98-0.84c-2.32-0.88-3.94-2.97-4.24-5.43c-0.28-2.44 0.88-4.85 2.97-6.15c12.97-8.44 16.27-21.56 19.73-35.47c0.67-2.73 1.39-5.59 2.13-8.32l1.35-4.51c2.97-10.02 6.19-21.36 15-30.49c8.32-8.55 17.48-16.23 27.38-22.91c6.04-4.39 12.26-8.88 17.99-13.9c3.07-3.02 7.01-4.98 11.25-5.59c0.68-0.04 1.35-0.04 2.03 0c6.96 0.28 13.59 2.99 18.75 7.67c1.48 1.21 2.81 2.6 3.91 4.16c0.55 0.74 1.2 1.4 1.91 2c6.58 1.17 13.01 3.18 19.08 5.99c3.62 1.93 7.03 4.18 10.28 6.68l2.36 1.72c1.15 0.61 2.44 0.96 3.75 0.98c1.7 0.19 3.38 0.55 5.02 1.05c4.47 1.47 8.61 3.71 12.27 6.68l3.5 2.48l0.37 0.26c3.16 2.01 6.74 3.3 10.45 3.75c3.46 0.58 6.81 1.52 10.06 2.81c7.07 2.56 13.73 6.11 19.8 10.55c3.67 2.56 7.52 4.9 11.47 7.02c2.58 1.3 5.43 2.01 8.34 2.05c1.66 0.06 3.32-0.32 4.82-1.05c3.13-2.37 2.68-4.05 2.68-4.98c-0.92-5.1-5.37-9.37-10.06-13.87c-3.46-3.06-6.54-6.5-9.22-10.25l-0.2-0.3c-2.22-3.81-2.81-8.36-1.58-12.6c2.15-6.48 7.65-10.99 16.37-13.98c1.86-0.61 3.73-1.1 5.65-1.47c2.09-0.31 4.12-0.92 6.05-1.8c0.62-0.47 1.23-0.98 1.8-1.54l0.7-0.66c3.63-3.46 9.65-1.25 10.17 3.75v0.66c1.72 10.02-1.33 18.5-8.34 23.22c-2.31 1.48-4.82 2.56-7.5 3.22c9.73 8.69 14.9 17.46 15.8 26.78v0.29c-0.12 9.96-5.95 18.97-15 23.15h-0.23c-4.02 1.7-8.36 2.59-12.75 2.61c-1.33 0-2.66-0.09-3.97-0.29c0.67 4.53 0.33 9.16-0.98 13.57c-0.27 1.07-0.64 2.15-1.09 3.18c-0.21 0.57-0.41 0.94-0.41 1.16c1.19 0.5 2.46 0.74 3.75 0.72c1.39 0.02 2.75 0.14 4.12 0.33c3.79 0.86 6.78 3.75 7.78 7.5c0 0.2-0.41-0.67 0 0.44c0.41 1.14 0.9 3.05 1.19 4.03c0.31 0.97 0.82 2.91 1.13 3.75c1.8-2.37 4.53-3.85 7.5-4.1c1.68 0 3.32 0.56 4.65 1.62l0.57 0.41c0.45 0.37 0.92 0.7 1.43 1.01c2.52 1.49 4.75 3.46 6.56 5.78c0.53 0.74 0.88 1.6 1.04 2.5c2.93 0.57 5.41 2.54 6.64 5.25c0.62 1.68 1.01 3.44 1.17 5.22c0.08 0.71 0.14 1.72 0.25 1.96c0.12 0.22 0.41 0.59 0.41 0.86c1.54 2.5 1.8 5.61 0.68 8.32zm-194.59-44.22c-2.17-0.06-4.04-0.45-5.91-0.45c0.56 1.33 1.28 2.58 2.12 3.75c0.24 0.39 0.45 0.68 0.65 0.94l0.45 0.72l2.69-4.96z" />
		<path id="&lt;Compound Path&gt;" fill-rule="evenodd" class="s3" d="m1340.95 178.95c1.68 3.65 2.74 7.57 3.13 11.58v0.24c-0.33 0.02-0.66 0.02-0.98 0h-6.07c-2.25 0.17-4.47-0.53-6.19-1.96c-1.15-1.15-2.19-2.4-3.08-3.75c-1.39-1.95-2.46-3.49-4.41-3.49c-0.72 0.02-1.42 0.19-2.07 0.53c-1.39 1.01-3.07 1.56-4.79 1.58c-1 0-1.97-0.19-2.89-0.56c-1.4-0.59-2.67-1.44-3.75-2.52c-0.82-0.71-1.68-1.33-2.6-1.92c-5.27-3.89-11.62-6.03-18.18-6.11c-2.01 0-4 0.24-5.96 0.69c-1.13 0.15-2.28 0.15-3.41 0c-3.74-0.56-7.23-2.19-10.08-4.65c-4.51-2.96-7.42-7.81-7.93-13.16c-0.45-2.01-0.76-4.02-0.97-6.07c0.15-0.57 0.31-0.86 1.17-1.42c0.21-0.06 0.45-0.06 0.68 0c0.33 0 0.62 0.19 0.78 0.48c2.03 5.62 8.28 14.35 15.98 16.87c1.93 0.76 3.98 1.14 6.07 1.1c1.78-0.04 3.55-0.18 5.31-0.41c1.89-0.24 3.77-0.39 5.66-0.43c1.27 0 2.52 0.09 3.75 0.31c6.45 1.35 12.39 4.46 17.19 8.97l0.78 0.59c0.37 0.16 0.78-0.06 0.86-0.45c0.04-0.12 0.04-0.26 0-0.37c-5.45-7.17-13.96-11.35-22.99-11.25c-0.78-0.06-1.56-0.06-2.36 0c-1.66 0.29-3.34 0.47-5.02 0.52c-6.93 0.14-13.46-3.26-17.32-9c-2.6-4.02-4.34-8.54-5.1-13.26c-0.72-5.7-1.97-11.31-3.75-16.78c-0.27-0.63-0.78-0.9-1.26-0.63c-0.3 0.14-0.45 0.45-0.43 0.78c0 0.22 0 0.45 0 0.68c1.37 5.53 1.48 11.31 0.35 16.9c-1.72 4.2-5.92 6.83-10.43 6.55h-1.79c-1.8 0-3.63 0.02-5.3-0.32c-1.64-0.33-3.55-0.33-5.39-0.33h-1.38c-4.1 0.1-8.19 0.59-12.19 1.42c-4.06 0.86-8.21 1.35-12.34 1.47c-1.21 0-2.4-0.19-3.54-0.19h-0.37v-0.33c0.21-0.45 0.39-0.9 0.53-1.35c1.01-1.94 1.45-4.12 1.23-6.31c-0.14-0.56-0.67-0.7-1.35-0.37c-0.93 0.76-1.58 1.81-1.84 3.01c-0.19 0.78-0.53 1.52-0.97 2.21c-2.35 3.95-6.18 6.78-10.65 7.87c-2.99 2.46-5.72 5.21-8.16 8.22c-0.76 0.95-0.99 2.22-0.65 3.4c1.76 4.12 6.07 5.18 10.24 6.19c0.84 0.26 1.68 0.43 2.56 0.52c1.81 0.14 3.57-0.78 4.49-2.36c0.52-0.92 0.98-1.89 1.35-2.89c1.13-2.7 2.51-5.92 5.66-5.92h10.32c0.98-0.04 1.78 0.74 1.75 1.72c0.02 0.6-0.17 1.19-0.56 1.66c-0.41 0.6-0.8 1.25-1.15 1.89c-1.15 2.38-2.83 4.49-4.88 6.15c-0.59 0.19-1.21 0.3-1.84 0.31c-1.84 0.08-2.65 0.25-3.11 2.73c-0.35 2.58-1.7 4.92-3.75 6.53c-1.31 1.23-3.01 1.91-4.8 1.91c-1.78-0.1-3.54-0.45-5.22-1.05c-2.97-1.11-6.01-2.03-9.1-2.78c-2.29-0.61-4.61-1.19-6.88-1.95c-1.12-0.41-2.09-1.13-2.81-2.09c-0.66-0.9-1.58-1.59-2.61-1.96c-0.86-0.18-1.76-0.18-2.62 0c-0.55 0.1-1.11 0.15-1.66 0.17c-0.96 0.04-1.87-0.35-2.52-1.07c-1.09-1.71-1.86-3.63-2.25-5.62l-0.37-1.28c-0.45-1.53-1.09-3.68-1.46-5.62c-0.27-1.33-0.12-2.72 0.41-3.96v-0.49l7.25-13.2c0.1-0.12 0.21-0.26 0.33-0.44c0.41-0.78 1.07-1.39 1.88-1.72c1.79 0.37 3.47 1.1 4.98 2.13c0.39 0.48 0 1.21-0.45 1.91c-1.39 2.21-6.13 9.01-6.93 10.8c-1.14 3.63-0.52 7.58 1.66 10.68c0.08 0.2 0.23 0.36 0.41 0.45v-0.49c-0.31-2.09-0.31-4.24 0-6.33c0.66-2.26 1.76-4.4 3.22-6.27l5.84-8.62c0.72-1.58 0.52-3.4-0.47-4.81c-1.01-1.04-2.19-1.88-3.49-2.48c-1.96-0.96-3.62-2.38-4.89-4.16c-4.79-6.29-5.28-13.69-5.84-21.49v-0.74c-0.1-0.69-0.55-1.25-1.17-1.51c-0.43 0-0.8 0.32-0.9 0.74c-1.17 5.39-0.9 11 0.8 16.23c1.01 3.67 2.38 7.22 4.08 10.62c0.25 0.89-0.35 1.81-1.27 1.95c-3.85 0.16-7.67 0-11.48-0.48c-3.85-0.98-7.36-2.97-10.2-5.75c-0.94-0.74-1.95-1.58-2.93-2.29c-0.4-0.16-0.66-0.16-0.78 0c-0.13 0.14-0.13 0.42 0 0.82c0.9 2.81 2.51 5.33 4.72 7.3c1.97 1.87 3.53 4.1 4.65 6.57c0.7 1.91 1.68 3.73 2.89 5.37c1.54 1.91 2.66 4.12 3.3 6.48c0.18 0.91-0.39 1.79-1.29 2.03c-0.62 0.06-1.27 0.06-1.91 0c-0.62-0.19-1.29-0.19-1.92 0c-0.01 0.9 0.08 1.81 0.32 2.7c0.49 1.5 0.49 3.14 0 4.65c-1.42 2.25-3.38 4.88-6.11 4.88c-2.11-0.72-4.2-1.51-6.27-2.29c-2.85-1.09-5.84-2.22-8.8-3.13h-2.25c-2.81 0.06-5.62 0.32-8.39 0.8c-2.36-0.68-4.52-1.97-6.2-3.75c-0.6-0.58-1.23-1.13-1.91-1.62c-0.3-0.07-0.61-0.07-0.9 0c-0.35-0.02-0.68 0.12-0.94 0.33c-5.62 5.44-11.44 11.25-19.6 11.25c-1.46-0.06-2.11-0.63-2.11-1.52c-0.03-0.13 0.08-0.33 0.31-0.61c0.25-0.3 0.53-0.55 0.86-0.74c3.77-2.71 6.78-6.35 8.77-10.55c0.65-1.89 1.58-3.65 2.77-5.25c1.25-1.54 2.23-3.28 2.85-5.18c0.16-0.52 0.11-0.63-0.29-0.78c-0.27-0.1-0.63 0.06-1.06 0.48c-4.43 4.73-6.4 9.05-10.15 13.5c-3.11 3.63-8.03 5.1-12.62 3.75c-0.98-0.31-1.15-1.64-0.25-2.17c14.47-9.49 18.22-24.08 21.98-38.67c0.68-2.7 1.38-5.47 2.14-8.17l1.23-4.4c2.78-9.9 5.67-20.13 13.61-28.32c8.08-8.3 17.01-15.76 26.62-22.27c6.15-4.44 12.48-9.04 18.38-14.18c2.2-2.25 5.04-3.75 8.15-4.31h1.64c5.78 0.33 11.25 2.69 15.45 6.68c1.17 0.9 2.18 1.93 3.07 3.11c1.13 1.75 2.81 3.08 4.77 3.75c6.21 1.11 12.24 2.99 17.97 5.6c3.4 1.8 6.64 3.89 9.7 6.21l2.56 1.83c1.8 1.13 3.85 1.8 5.96 1.92c1.45 0.17 2.89 0.47 4.27 0.9c3.86 1.25 7.46 3.2 10.61 5.74c1.25 0.86 2.52 1.76 3.75 2.6c3.81 2.52 8.14 4.14 12.68 4.68c3.16 0.51 6.23 1.39 9.2 2.58c6.62 2.48 12.85 5.88 18.56 10.06c3.85 2.75 7.87 5.27 12.03 7.5c3.34 1.76 7.05 2.7 10.8 2.74c2.72 0.06 5.41-0.6 7.77-1.95c3.61-2.07 5.59-6.15 4.94-10.28c-1.19-6.89-6.48-11.97-11.58-16.83c-3.36-2.97-6.35-6.31-8.93-9.98c-1.52-2.52-1.95-5.55-1.19-8.4c1.56-4.61 6-8.21 13.05-10.65c1.64-0.52 3.32-0.96 5.02-1.29c2.62-0.41 5.16-1.25 7.5-2.46c1.01-0.63 1.93-1.37 2.77-2.22l0.68-0.63c0.14-0.14 0.33-0.22 0.53-0.23c0.55 0 0.86 0.76 0.86 1.34c0 0.16 0 0.32 0 0.45c0.82 4.67 1.07 13.1-6.04 17.89c-2.23 1.35-4.65 2.29-7.17 2.81h-0.53l-1.19 0.31c-1.95 0.45-5.08 1-5.04 2.37c0.04 1.35 1.59 2.7 2.89 3.75l0.76 0.63c10 8.4 15.25 16.58 16.03 25.1c-0.15 7.83-4.8 14.88-11.95 18.1c-3.36 1.44-6.99 2.21-10.65 2.21c-2.09-0.04-4.18-0.31-6.19-0.82c-0.41-0.29-0.76-0.29-1.17-0.29c-0.59-0.2-1.21-0.31-1.84-0.35c-0.57-0.07-1.12 0.24-1.35 0.76c-0.14 1.43 0.08 2.88 0.64 4.2c0.2 0.53 0.35 1.06 0.49 1.61c0.78 4.02 0.55 8.16-0.68 12.05c-0.2 0.88-0.49 1.75-0.86 2.58c-1.19 1.89-1.19 4.3 0 6.19c2.11 2.17 5.08 3.28 8.11 3c1.15 0.02 2.32 0.12 3.47 0.3c2.33 0.45 3.13 2.48 3.75 4.2l0.23 0.56c0.33 1.06 0.66 2.37 1.04 3.75c0.41 1.7 0.94 3.38 1.58 5.02c0.74 1.11 1.66 2.09 2.73 2.89c1.21 1.01 2.36 2.13 3.42 3.3c0.7 0.74 1.39 1.64 2.09 2.56c2.11 2.78 4.32 5.64 7.89 5.43h0.18v0.04zm-203.09-50.7c0.26-0.63 0.26-1.33 0-1.96c-1.09-2.57-2.46-5.02-4.1-7.3c-1.76-1.8-2.65-2.77-3.47-1.8c-0.84 0.97-1.7 2.01-2.49 3.07c-1.6 2.21-3.44 4.24-5.47 6.03c-3.28 2.99-4.92 7.36-4.43 11.78c0 0.37 0.19 0.72 0.49 0.93c0.27 0.24 0.62 0.38 0.98 0.38h0.41c0.7-0.61 1.11-1.51 1.14-2.44c0.07-0.48 0.2-0.98 0.33-1.44c1.04-2.72 2.95-4.98 5.43-6.47c0.43-0.37 2.11-1.64 2.52-1.95c0.76-0.67 1.7-1.1 2.69-1.27c1.21-0.12 1.62 0.68 2.11 1.58c0.37 0.8 1 1.47 1.75 1.92c0.8 0.27 1.68-0.06 2.11-0.8v-0.26zm-2.03 32.36c0.65-1.12 0.33-2.48-0.97-4.08c-1.25-1.38-2.99-2.25-4.85-2.36c-0.33-0.04-0.68 0.03-0.97 0.21c-0.51 0.35-0.77 1-0.63 1.62c-0.02 1.97 0.87 3.85 2.44 5.05c0.8 0.49 1.72 0.73 2.66 0.7c0.9 0.14 1.79-0.25 2.32-0.99v-0.16zm41.25-89.8c-0.35-0.84-1.21-1.33-2.11-1.25c-0.69 0-1.34 0.19-1.94 0.56c-4.98 3.52-8.88 8.34-11.25 13.95c-0.92 2.29-1.15 4.78-0.72 7.21c0.12 0.16 0.29 0.23 0.48 0.26c0.25 0 0.46-0.18 0.65-0.52c0.7-1.64 1.56-3.21 2.58-4.69c2.52-3.54 5.51-6.73 8.85-9.51l2.73-2.52c1.08-0.82 1.37-2.3 0.73-3.48zm25.28 89.96c0.51-0.04 1.01 0.13 1.38 0.49c0.11 0.23 0.11 0.5 0 0.74c-0.43 2.71-1.17 5.37-2.17 7.91c-0.58 1.01-1.69 1.56-2.85 1.42c-0.8-0.02-1.6-0.11-2.37-0.29c-1.99-0.41-4.6-0.94-4.92-3.5c0.12-2.25 0.78-4.41 1.95-6.33c0.61-0.06 1.21-0.06 1.8 0h3.04c1.12 0 2.23-0.08 3.34-0.24l0.79-0.21zm143.43 9.02c0.78 1.13-0.98 2.97-1.88 3.87c-0.88 0.9-2.09 1.41-3.34 1.43c-1.43-0.22-2.69-0.98-3.55-2.13l-0.45-0.57c-2.15-2.59-3.75-4.68-3.75-5.86c0.7-1.7 2.28-2.91 4.12-3.15c0.53 0 1.01 0.2 1.42 0.53l0.33 0.26c0.62 0.51 1.29 0.98 1.99 1.39c1.95 1.15 3.67 2.63 5.1 4.4v-0.16zm10.06 18.83c-0.16 0.28-0.39 0.47-0.68 0.57l-6.15 2.03h-0.19c-0.82 0-1.27-1.74-1.27-2.27c-0.65-3.2-1.48-6.37-2.5-9.47c-0.39-2.44 0.9-3.58 3.03-4.65c0.45-0.2 0.94-0.29 1.42-0.31c1.47 0.04 2.79 0.88 3.46 2.19c0.41 1.21 0.68 2.46 0.78 3.75c0.12 0.86 0.23 1.8 0.41 2.66c0.2 0.63 0.45 1.25 0.76 1.84c0.62 1.35 1.27 2.74 0.94 3.67zm-287.82-23.88c0.43 0.14 0.75 0.54 0.71 1.01c-0.02 0.73-0.65 1.27-1.35 1.19c-0.7 0.2-1.45 0.28-2.17 0.28c-5.82-0.47-11.06-3.73-14-8.77c-3.11-5.62-5.66-9.05-10.28-10.7c0.47 0.94 1.04 1.84 1.66 2.68l0.98 1.43c1.92 3.06 3.46 6.34 4.61 9.78c1.69 3.54 4.53 6.39 8.06 8.11l4.24 2.24c0.82 0.41 1.26 1.07 1.23 1.56c-0.04 0.49-0.26 1.06-1.06 1.06h-1.61c-7.03 0.21-13.8-2.68-18.53-7.88c-1.07-1.4-2.67-2.3-4.41-2.52c-2.95 3.3-6.92 5.51-11.25 6.27c-4.67-1.04-9.56-0.7-14.02 0.94l-1.78 0.61c-3.3 1.38-6.77 2.24-10.35 2.58c-2.21 0.14-4.27-1.07-5.24-3.07c-0.45-0.86-0.15-1.66-0.45-2.63c-0.72-1.74-0.65-3.71 0.18-5.39l2.81-4.16c-0.02-0.41-0.31-0.74-0.71-0.8c-0.46-0.02-0.91 0.09-1.32 0.31c-0.39 0.22-0.84 0.35-1.31 0.37c-0.66-0.02-1.19-0.6-1.15-1.27c0.64-3.3 2.53-6.19 5.27-8.11c0.72-0.6 1.39-1.27 2.03-1.91c0.61-3.36 2.13-6.51 4.39-9.08c-0.1-0.26-0.29-0.47-0.53-0.59l-2.56 0.45c-2.77 0.63-5.62 0.95-8.47 0.97c-3.24 1.85-7.07 2.44-10.73 1.64c-0.33-0.25-0.57-0.59-0.7-0.97c-0.08-0.51 0-1.01 0.26-1.46c3.8-5.32 5.31-11.94 4.19-18.38c-0.09-0.63-0.17-0.63-0.58-0.63c-0.43 0-0.68 0.57-0.68 0.86c-0.73 5.86-2.72 11.51-5.83 16.54c-0.99 1.5-3.8 2.13-6.52 2.73c-1.13 0.2-2.24 0.47-3.34 0.82c-0.76 0.25-1.33 0.96-1.42 1.76c0.09 1.92 0.76 3.75 1.91 5.25c2.66 4.22 5 8.63 7 13.2c-0.06 3.4-0.51 6.78-1.4 10.06c-0.17 0.64-0.09 0.96 0.23 0.96c0.26-0.04 0.49-0.14 0.69-0.3c2.23-2.44 3.98-5.29 5.17-8.4c0.18-1.42-0.07-2.87-0.76-4.12l-7.5-15c0.62-0.93 1.74-1.44 2.85-1.31c1.15 0.04 2.28 0.33 3.34 0.82l1.5 0.53c1.64 4.65 3.88 9.06 6.66 13.13c1.43 2.48 1.43 5.52 0 8.02c-1.6 3.27-3.43 6.43-5.5 9.44c-1.76 1.51-4.03 2.25-6.33 2.11h-3.63c-6.64 3.34-13.59 6.02-20.74 8.03c-1.02 0.33-2.05 0.49-3.13 0.49c-2.36 0.04-4.67-0.76-6.48-2.29c-1.58-1.44-2.87-3.22-3.75-5.18c-0.41-0.76-0.86-1.54-1.34-2.28c-0.73-0.78-1.76-1.16-2.81-1.02h-2.52c-0.71 0.1-1.43-0.18-1.88-0.76l-0.7-1.15c-1.59-2.66-3.07-5.22-4.65-7.95c-0.29-0.63-0.29-1.37 0-1.99c0.27-0.53 0.76-0.9 1.34-1.01c2.69-0.65 5.45-1.1 8.23-1.35c2.42-0.41 4.9 0.45 6.56 2.29c1.14 1.44 2.19 2.97 3.11 4.57c1.72 2.93 1.43 3.75 4.08 6.23c0.96 0.73 2.11 1.17 3.3 1.27c3.4-0.29 6.68-1.27 9.67-2.87c1.74-1.06 4.06-2.76 4.06-5.14c-0.66-4.71-3.41-8.85-7.5-11.25c-4.55-2.25-8.6-5.41-11.86-9.32c-1.15-1.75-1.98-3.71-2.44-5.76c-0.1-0.49-0.41-0.94-0.41-1.43c-0.08-0.26-0.33-0.41-0.6-0.37c-0.26 0-0.49 0.07-0.71 0.22c-1.27 1.13-0.49 3.59 0 5.25c0.23 0.22 0.23 0.49 0.23 0.67v0.24c0.51 1.23 0.78 2.21 0 2.89c-1.45 1.02-3.18 1.48-4.92 1.35h-4.32c-2.52-0.21-5.02-0.6-7.5-1.17c-2.87-0.67-5.82-1.06-8.77-1.15c-0.66-0.04-1.33-0.04-1.99 0c-1.74 0.1-3.49 0.31-5.21 0.65c-2.39 0.43-4.81 0.7-7.23 0.78c-3.05 0.49-6.08-1.01-7.5-3.75c-1.76-6.11-1.84-12.6-0.2-18.75c0-0.52-0.67-0.86-1.05-0.86h-0.26c-0.33 0-0.64 0.19-0.74 0.53c-0.65 2.63-1.15 5.31-1.5 8c-0.43 3.44-1.14 6.82-2.11 10.14c-1.89 5.92-5.9 10.96-11.25 14.15c-5.1 2.36-10.63 3.63-16.23 3.75c-9.34 0.22-20.9 1.64-27.68 11.25c-0.33 0.55-0.58 1.15-0.72 1.8c-0.12 0.26-0.12 0.52 0 0.78c0.3 0.29 0.76 0.29 1.06 0c6.6-7.27 16.07-11.23 25.88-10.8h1.83c8.67 0 19.57-1.15 26.25-10.28c1.48-1.93 2.85-3.95 4.12-6.03v-0.25l3.75 2.87v0.19c0 0.04-1.64 4.2-2.61 6.07c-1.54 3.5-3.99 6.5-7.06 8.77l-2.73 1.47c-1.84 0.97-4.13 2.18-6.39 3.45c-2.03 1.11-4.32 1.68-6.64 1.64c-1.42 0-2.85-0.18-4.22-0.54c-2.93-0.65-5.9-1-8.9-1.1c-2.09-0.08-4.18 0.31-6.1 1.15c-1.34 0.96-2.59 2.04-3.75 3.21c-0.8 0.74-1.62 1.48-2.44 2.17c-2.74 2.34-6.19 3.67-9.79 3.75c-0.86-0.08-1.7-0.24-2.52-0.49c-0.88-0.27-1.78-0.43-2.69-0.49c-0.9-0.04-1.78 0.34-2.37 1.02c-1.04 1.14-1.89 2.38-2.59 3.75c-0.92 2.09-2.5 3.85-4.49 4.99c-1.33 0.7-2.79 1.05-4.27 1.01c-1.74-0.06-3.48-0.31-5.18-0.7c-1.23-0.31-2.48-0.55-3.75-0.68h-0.29v-0.48l0.34-1.55c0.41-3.43 1.71-6.74 3.75-9.55c1.54-0.06 3.03-0.6 4.24-1.58c1.58-1.5 2.93-3.25 4-5.14l2.19-1.27c3.13-1.46 5.82-3.71 7.83-6.52c0.65-1.35 1.27-3.01 1.92-4.61c0.62-2.04 1.54-3.95 2.73-5.7c0.43-0.43 1-0.7 1.62-0.76h1.48c1.13-0.08 3.17-0.14 4.88-0.37c3.54-0.94 6.84-2.58 9.71-4.84c0.84-0.88 1.13-2.13 0.8-3.3c-0.12-0.34-0.41-1.04-0.8-1.94c-1.13-2.62-2.03-5.32-2.69-8.07c-0.21-1.22-0.49-4.03-0.49-7.01c-0.08-1.66-0.26-3.75-0.26-5.41c-0.07-0.86-0.39-0.86-0.57-0.86h-0.37c-3.81 1.14-7.73 1.8-11.7 1.96c-1.27 0-2.52-0.1-3.75-0.3c-8.08-0.92-15.06-6.09-18.3-13.54c-2.79-7.09-1.68-15.09 2.91-21.15c3.91-4.5 8.24-8.59 12.95-12.22l2.65-2.23c0.98-0.74 1.21-1.31 1.21-2.05c-0.16-1.21-1.02-2.21-2.19-2.56c-1.1-0.23-2.21-0.33-3.34-0.29h-2.09c-1.74 0.07-3.46-0.22-5.06-0.82l-0.65-0.27c-5.51-2.66-9.46-7.77-10.6-13.79c-0.27-2.57 0.35-5.16 1.75-7.33c3.5 2.58 7.27 4.75 11.25 6.47c1.68 0.41 3.31 0.63 4.99 0.96l1.01 0.2h0.45c4.74 0.84 9.22 2.87 12.97 5.88c3.24 3.94 3.51 9.53 0.68 13.77c-3.05 3.53-6.47 6.73-10.2 9.53c-2.32 1.95-4.72 3.96-6.84 6.08c-4.28 4.02-5.99 10.07-4.49 15.74c1.87 5.15 6.58 8.73 12.03 9.16h0.52c6.85-0.49 13.44-2.85 19.02-6.88l1.68-1.04c0.97-0.65 3.1-2.31 4.72-3.54c4.65-4.18 10.08-7.38 15.98-9.45c2.62-0.68 5.29-1.09 7.99-1.23c2.54-0.15 5.06-0.58 7.5-1.3c5.11-2.19 9.77-5.38 13.65-9.37c5.04-4.34 11.54-6.59 18.19-6.31c3.18 0 3.75-0.29 7.5-4.04l3.11-2.89c4.32-3.48 9.35-5.92 14.74-7.17c2.69-0.76 5.35-1.7 7.95-2.82c3.27-1.23 6.37-2.87 9.22-4.86c1.55-1.09 3.5-2.22 5.3-3.2c2.89-1.18 5.97-1.76 9.1-1.76c2.44-0.02 4.87 0.37 7.17 1.18c3.32 1.11 6.42 2.79 9.19 4.94l22.8 18.94l0.33 0.33c0.41 0.41 0.9 0.86 1.35 1.35c6.74 7.66 13 15.72 18.75 24.16c1.64 2.89 2.75 6.07 3.26 9.37c1.27 12.15 4.22 24.08 8.79 35.43c0.51 0.72 1.14 1.37 1.84 1.92c1.01 0.86 1.93 1.81 2.77 2.85c0.98 1.42 1.92 2.97 2.81 4.46c1.98 4.08 4.96 7.59 8.69 10.18l3.46 1.71l0.15-0.07zm-33.28-31.15c0.33-1.66 0.32-3.37-0.06-5.03c-0.66-2.29-1.79-4.44-3.34-6.25c-0.9-0.92-1.67-1.93-2.36-3.01c-0.47-0.95-1.06-1.85-1.76-2.65c-0.72-1.07-1.95-1.7-3.24-1.66c-1.13 0.04-2.17 0.67-2.74 1.66c-0.27 0.42-0.78 1.5-1.52 3.26c-0.65 1.19-1.13 2.44-1.46 3.75c-0.37 1.23-0.37 2.52 0 3.75c0.14 0.86 0.62 1.12 1.04 0.86c0.43-0.26 0.43-0.45 1.7-2.11c0.75-1.05 1.79-1.87 3.03-2.28c2.14-0.17 5.93 4.65 6.71 6.35c0.51 1.71 0.8 3.52 0.82 5.31c0.04 0.19-0.03 1.55 1.1 1.55c0.7 0 1.33-0.43 1.59-1.07c0.39-0.76 0.62-1.56 0.7-2.41h-0.19zm-10.41 23.97c0.08-0.43 0.56-3.05-0.35-3.83c-0.72-0.27-1.53-0.27-2.24 0c-2.47 0.86-4.48 2.7-5.59 5.05c-0.38 0.7-0.45 1.22-0.21 1.55c0.34 0.49 0.86 0.74 2.37 0.74c1.81 0.12 3.61-0.25 5.24-1.09c0.57-0.68 0.92-1.55 0.98-2.42h-0.18zm-38.71-75.31c-0.67-1.78-1.89-3.3-3.47-4.36c-0.35-0.14-0.73-0.22-1.1-0.22c-0.7-0.06-1.37 0.23-1.8 0.78c-1.01 1.66-0.11 2.85 0.9 4.24c0.56 0.74 1.07 1.51 1.51 2.33c1.62 3.81 2.73 7.79 3.3 11.89c0.1 0.64 0.26 0.64 0.57 0.64c0.29 0 0.7-0.27 0.7-0.72c1.29-4.8 1.07-9.91-0.6-14.59zm-41.06 81.89c-0.32-0.57-0.7-1.11-1.17-1.6c-0.82-0.78-1.57-1.62-1.27-2.32c0.19-0.48 0.64-0.73 1.35-0.73c3.01 0.02 5.99-0.18 8.97-0.59c2.03-0.49 2.52 1.35 3.08 3.26c0.26 1.04 0.61 2.05 1.08 3.03c0.15 0.33 0.34 0.67 0.53 0.97c0.48 0.86 0.86 1.47-0.26 2.4c-1.93 1.54-4.26 2.47-6.72 2.62c-0.41 0.06-0.82 0.06-1.23 0c-0.88-0.18-1.62-1.83-2.48-3.75c-0.47-1.13-1.04-2.24-1.7-3.3h-0.18zm-139.2 9.65c-0.54-0.55-1.07-1.13-1.58-1.71c-0.29-0.43-0.41-0.94-0.33-1.43c0.06-0.9 0.45-1.74 1.09-2.36c1.62-1.35 3.32-2.62 5.1-3.75l1.52-1.02c0.74-0.49 1.7-0.49 2.45 0c1.38 1.07 2.48 1.95 2.15 2.89c-1.54 3.08-3.79 5.76-6.56 7.79c-0.55 0.31-1.15 0.46-1.78 0.48c-0.76-0.02-1.49-0.31-2.05-0.82v-0.08zm-2.36 3.48c0.3 0.48 0.45 0.83 0.45 1.06c-0.74 2.18-1.47 4.57-2.07 6.68c-1.11 3.95-1.52 5.37-2.01 5.37c-2.29-0.53-4.51-1.27-6.64-2.22c-0.49-0.49-0.2-1.61 0.26-2.09c1.54-1.74 1.7-2.32 2.15-8.03c0.58-1.87 1.95-3.4 3.75-4.16h0.29c1.19 0 3.38 2.7 3.83 3.4z" />
	</g>
</svg>