<svg width="462" height="175" viewBox="0 0 462 175" fill="none" xmlns="http://www.w3.org/2000/svg">
<path d="M119.73 132.007H98.1454V167H72.8543V132.007H0.360529V112.602L73.1814 7.18663H98.1454V110.749H119.73V132.007ZM72.8543 110.749V71.1774C72.8543 67.907 72.8907 64.6003 72.9633 61.2572C73.1087 57.8414 73.254 54.571 73.3994 51.446C73.5447 48.3209 73.6901 45.4503 73.8354 42.8339C73.9808 40.145 74.0898 37.9284 74.1625 36.1841H73.2904C71.9095 39.0912 70.3834 42.0709 68.7118 45.1232C67.0403 48.1029 65.2597 51.0099 63.3702 53.8443L24.1254 110.749H72.8543Z" fill="#3C99DC"/>
<path d="M456.329 44.0331C456.329 51.228 454.876 57.4781 451.969 62.7834C449.062 68.0887 445.065 72.4492 439.977 75.865C434.963 79.208 429.149 81.6063 422.535 83.0598V83.8229C435.254 85.4218 444.847 89.4189 451.315 95.8144C457.856 102.21 461.126 110.677 461.126 121.214C461.126 130.444 458.909 138.693 454.476 145.96C450.043 153.155 443.248 158.824 434.091 162.967C424.934 167.109 413.16 169.18 398.77 169.18C390.122 169.18 382.091 168.49 374.679 167.109C367.338 165.728 360.361 163.512 353.748 160.459V137.675C360.507 141.019 367.702 143.598 375.333 145.415C382.964 147.232 390.195 148.141 397.026 148.141C410.326 148.141 419.81 145.67 425.479 140.728C431.147 135.713 433.982 128.809 433.982 120.015C433.982 114.347 432.492 109.695 429.512 106.062C426.605 102.428 422.063 99.7025 415.886 97.8856C409.781 96.0687 401.895 95.1603 392.23 95.1603H378.167V74.5568H392.339C401.568 74.5568 408.981 73.4667 414.577 71.2864C420.173 69.0335 424.207 65.9447 426.678 62.0203C429.221 58.0958 430.493 53.5172 430.493 48.2846C430.493 41.4531 428.277 36.1478 423.843 32.3687C419.41 28.5169 412.833 26.591 404.112 26.591C398.734 26.591 393.829 27.2087 389.395 28.4442C385.035 29.6797 381.001 31.2422 377.295 33.1318C373.588 35.0213 370.064 37.0562 366.721 39.2365L354.402 21.4674C360.434 16.9615 367.629 13.146 375.987 10.021C384.344 6.89593 394.083 5.3334 405.202 5.3334C421.554 5.3334 434.163 8.85816 443.03 15.9077C451.896 22.8845 456.329 32.2597 456.329 44.0331Z" fill="#3C99DC"/>
<rect x="156.5" y="10.5" width="155" height="154" rx="22.5" stroke="#3C99DC" stroke-width="21"/>
<circle cx="199" cy="50" r="15" fill="#3C99DC"/>
<circle cx="270" cy="50" r="15" fill="#3C99DC"/>
<path d="M185.126 137.69C187.562 126.377 193.827 116.25 202.863 109.02C211.899 101.789 223.152 97.898 234.725 98.0024C246.297 98.1067 257.479 102.2 266.383 109.593C275.287 116.985 281.368 127.223 283.599 138.578L264.065 142.417C262.717 135.558 259.045 129.374 253.667 124.91C248.289 120.445 241.535 117.972 234.545 117.909C227.556 117.846 220.758 120.196 215.301 124.564C209.843 128.931 206.059 135.047 204.588 141.88L185.126 137.69Z" fill="#3C99DC"/>
</svg>
