<svg width="34" height="34" viewBox="0 0 34 34" fill="none" xmlns="http://www.w3.org/2000/svg">
<g opacity="0.5" clip-path="url(#clip0_323_7610)">
<path d="M23.839 23.4773L24.0611 10.7513C24.07 10.2423 23.8809 9.7298 23.4989 9.33417L18.6363 4.29879C17.8721 3.50751 16.5995 3.4853 15.8083 4.24942L10.7729 9.11203C10.3773 9.4941 10.1704 9.99968 10.1613 10.5229L9.93914 23.2488C9.93026 23.7579 10.1193 24.2704 10.5014 24.666C10.8835 25.0616 11.389 25.2685 11.9053 25.2704L21.8033 25.4432C22.3192 25.4593 22.8317 25.2702 23.2274 24.8881C23.623 24.5061 23.8301 23.9864 23.839 23.4773ZM11.9329 23.2836L12.1622 10.5507L17.1976 5.6881L22.0602 10.7235L22.0674 10.7165L21.8453 23.4425L11.9329 23.2836V23.2836Z" fill="black"/>
<path d="M16.0568 10.2651C16.6323 10.861 17.5819 10.8776 18.1778 10.3021C18.7737 9.72664 18.7903 8.77704 18.2148 8.18112C17.6394 7.5852 16.6898 7.56863 16.0938 8.1441C15.4979 8.71957 15.4813 9.66918 16.0568 10.2651Z" fill="black"/>
<path d="M19.3937 19.1148C19.303 19.6739 19.0239 20.1016 18.5564 20.3978C18.0889 20.694 17.4627 20.8219 16.6778 20.7817L16.4743 22.0368L15.705 21.9121L15.9029 20.6917C14.9492 20.5212 14.1882 20.2475 13.6202 19.8705L13.818 18.6501C14.1234 18.8658 14.4887 19.0655 14.914 19.2492C15.3399 19.4291 15.728 19.5494 16.0783 19.6101L16.429 17.447L15.9722 17.1889C15.3793 16.8435 14.9634 16.4792 14.7248 16.0963C14.4906 15.7101 14.4139 15.2682 14.4945 14.7708C14.5808 14.2387 14.858 13.8345 15.3263 13.5582C15.7983 13.2826 16.395 13.1657 17.1164 13.2074L17.274 12.2357L18.0432 12.3605L17.8885 13.3148C18.6668 13.4687 19.3835 13.7471 20.0384 14.1501L19.4445 15.1401C18.8779 14.8029 18.2995 14.5627 17.7094 14.4195L17.368 16.5248L17.7804 16.7638C18.4674 17.1641 18.9263 17.5432 19.1571 17.9012C19.388 18.2592 19.4668 18.6637 19.3937 19.1148ZM18.0146 18.9803C18.0509 18.7566 18.0015 18.5607 17.8666 18.3924C17.7361 18.2208 17.4986 18.0379 17.1542 17.8435L16.855 19.6886C17.5506 19.6945 17.9371 19.4584 18.0146 18.9803ZM15.8556 14.9796C15.8199 15.1994 15.8577 15.3935 15.9689 15.5619C16.084 15.731 16.3092 15.9159 16.6447 16.1167L16.9364 14.3179C16.6204 14.3142 16.3699 14.3705 16.1848 14.4869C15.9997 14.6033 15.89 14.7676 15.8556 14.9796Z" fill="black"/>
</g>
<defs>
<clipPath id="clip0_323_7610">
<rect width="24" height="24" fill="white" transform="translate(17.2963 0.0321045) rotate(46)"/>
</clipPath>
</defs>
</svg>
